999
DXF created by Inkscape
  0
SECTION
  2
HEADER
  9
$ACADVER
  1
AC1014
  9
$HANDSEED
  5
FFFF
  9
$MEASUREMENT
 70
     1
  0
ENDSEC
  0
SECTION
  2
TABLES
  0
TABLE
  2
VPORT
  5
8
330
0
100
AcDbSymbolTable
 70
     4
  0
VPORT
  5
2E
330
8
100
AcDbSymbolTableRecord
100
AcDbViewportTableRecord
  2
*ACTIVE
 70
     0
 10
0.0
 20
0.0
 11
1.0
 21
1.0
 12
210.0
 22
148.5
 13
0.0
 23
0.0
 14
10.0
 24
10.0
 15
10.0
 25
10.0
 16
0.0
 26
0.0
 36
1.0
 17
0.0
 27
0.0
 37
0.0
 40
341.0
 41
1.24
 42
50.0
 43
0.0
 44
0.0
 50
0.0
 51
0.0
 71
     0
 72
   100
 73
     1
 74
     3
 75
     0
 76
     0
 77
     0
 78
     0
  0
ENDTAB
  0
TABLE
  2
LTYPE
  5
5
330
0
100
AcDbSymbolTable
 70
     1
  0
LTYPE
  5
14
330
5
100
AcDbSymbolTableRecord
100
AcDbLinetypeTableRecord
  2
BYBLOCK
 70
     0
  3

 72
    65
 73
     0
 40
0.0
  0
LTYPE
  5
15
330
5
100
AcDbSymbolTableRecord
100
AcDbLinetypeTableRecord
  2
BYLAYER
 70
     0
  3

 72
    65
 73
     0
 40
0.0
  0
LTYPE
  5
16
330
5
100
AcDbSymbolTableRecord
100
AcDbLinetypeTableRecord
  2
CONTINUOUS
 70
     0
  3
Solid line
 72
    65
 73
     0
 40
0.0
  0
ENDTAB
  0
TABLE
  2
LAYER
  5
2
100
AcDbSymbolTable
 70
7
  0
LAYER
  5
50
100
AcDbSymbolTableRecord
100
AcDbLayerTableRecord
  2
0
 70
0
  6
CONTINUOUS
  0
LAYER
  5
51
100
AcDbSymbolTableRecord
100
AcDbLayerTableRecord
  2
base
 70
0
  6
CONTINUOUS
  0
LAYER
  5
52
100
AcDbSymbolTableRecord
100
AcDbLayerTableRecord
  2
border
 70
0
  6
CONTINUOUS
  0
LAYER
  5
53
100
AcDbSymbolTableRecord
100
AcDbLayerTableRecord
  2
pcb
 70
0
  6
CONTINUOUS
  0
LAYER
  5
54
100
AcDbSymbolTableRecord
100
AcDbLayerTableRecord
  2
winding_support
 70
0
  6
CONTINUOUS
  0
LAYER
  5
55
100
AcDbSymbolTableRecord
100
AcDbLayerTableRecord
  2
pcb_flanges
 70
0
  6
CONTINUOUS
  0
LAYER
  5
56
100
AcDbSymbolTableRecord
100
AcDbLayerTableRecord
  2
logo
 70
0
  6
CONTINUOUS
  0
ENDTAB
  0
TABLE
  2
STYLE
  5
3
330
0
100
AcDbSymbolTable
 70
     1
  0
STYLE
  5
11
330
3
100
AcDbSymbolTableRecord
100
AcDbTextStyleTableRecord
  2
STANDARD
 70
     0
 40
0.0
 41
1.0
 50
0.0
 71
     0
 42
2.5
  3
txt
  4

  0
ENDTAB
  0
TABLE
  2
VIEW
  5
6
330
0
100
AcDbSymbolTable
 70
     0
  0
ENDTAB
  0
TABLE
  2
UCS
  5
7
330
0
100
AcDbSymbolTable
 70
     0
  0
ENDTAB
  0
TABLE
  2
APPID
  5
9
330
0
100
AcDbSymbolTable
 70
     2
  0
APPID
  5
12
330
9
100
AcDbSymbolTableRecord
100
AcDbRegAppTableRecord
  2
ACAD
 70
     0
  0
ENDTAB
  0
TABLE
  2
DIMSTYLE
  5
A
330
0
100
AcDbSymbolTable
 70
     1
  0
DIMSTYLE
105
27
330
A
100
AcDbSymbolTableRecord
100
AcDbDimStyleTableRecord
  2
ISO-25
 70
     0
  3

  4

  5

  6

  7

 40
1.0
 41
2.5
 42
0.625
 43
3.75
 44
1.25
 45
0.0
 46
0.0
 47
0.0
 48
0.0
140
2.5
141
2.5
142
0.0
143
0.03937007874016
144
1.0
145
0.0
146
1.0
147
0.625
 71
     0
 72
     0
 73
     0
 74
     0
 75
     0
 76
     0
 77
     1
 78
     8
170
     0
171
     3
172
     1
173
     0
174
     0
175
     0
176
     0
177
     0
178
     0
270
     2
271
     2
272
     2
273
     2
274
     3
340
11
275
     0
280
     0
281
     0
282
     0
283
     0
284
     8
285
     0
286
     0
287
     3
288
     0
  0
ENDTAB
  0
TABLE
  2
BLOCK_RECORD
  5
1
330
0
100
AcDbSymbolTable
 70
     1
  0
BLOCK_RECORD
  5
1F
330
1
100
AcDbSymbolTableRecord
100
AcDbBlockTableRecord
  2
*MODEL_SPACE
  0
BLOCK_RECORD
  5
1B
330
1
100
AcDbSymbolTableRecord
100
AcDbBlockTableRecord
  2
*PAPER_SPACE
  0
ENDTAB
  0
ENDSEC
  0
SECTION
  2
BLOCKS
  0
BLOCK
  5
20
330
1F
100
AcDbEntity
  8
0
100
AcDbBlockBegin
  2
*MODEL_SPACE
 70
     0
 10
0.0
 20
0.0
 30
0.0
  3
*MODEL_SPACE
  1

  0
ENDBLK
  5
21
330
1F
100
AcDbEntity
  8
0
100
AcDbBlockEnd
  0
BLOCK
  5
1C
330
1B
100
AcDbEntity
 67
     1
  8
0
100
AcDbBlockBegin
  2
*PAPER_SPACE
  1

  0
ENDBLK
  5
1D
330
1B
100
AcDbEntity
 67
     1
  8
0
100
AcDbBlockEnd
  0
ENDSEC
  0
SECTION
  2
ENTITIES
  0
LWPOLYLINE
  5
100
100
AcDbEntity
  8
base
 62
7
100
AcDbPolyline
 90
5
 70
0
 10
28.170020
 20
53.318172
 30
0.0
 10
84.817373
 20
53.318172
 30
0.0
 10
84.817373
 20
0.665843
 30
0.0
 10
28.170020
 20
0.665843
 30
0.0
 10
28.170020
 20
53.318172
 30
0.0
  0
LWPOLYLINE
  5
101
100
AcDbEntity
  8
border
 62
7
100
AcDbPolyline
 90
26
 70
0
 10
1.631597
 20
53.980001
 30
0.0
 10
0.996597
 20
53.856529
 30
0.0
 10
0.476250
 20
53.503751
 30
0.0
 10
0.123472
 20
52.992223
 30
0.0
 10
0.000000
 20
52.348404
 30
0.0
 10
0.000000
 20
1.636598
 30
0.0
 10
0.123472
 20
1.001598
 30
0.0
 10
0.476250
 20
0.481251
 30
0.0
 10
0.996597
 20
0.128473
 30
0.0
 10
1.631597
 20
-0.003818
 30
0.0
 10
27.657778
 20
-0.003818
 30
0.0
 10
28.654375
 20
-0.003818
 30
0.0
 10
83.969931
 20
-0.003818
 30
0.0
 10
84.604931
 20
0.128473
 30
0.0
 10
85.125278
 20
0.481251
 30
0.0
 10
85.478056
 20
1.001598
 30
0.0
 10
85.601528
 20
1.636598
 30
0.0
 10
85.601528
 20
52.348404
 30
0.0
 10
85.478056
 20
52.992223
 30
0.0
 10
85.125278
 20
53.503751
 30
0.0
 10
84.604931
 20
53.856529
 30
0.0
 10
83.969931
 20
53.980001
 30
0.0
 10
28.654375
 20
53.980001
 30
0.0
 10
27.657778
 20
53.980001
 30
0.0
 10
1.631597
 20
53.980001
 30
0.0
 10
1.631597
 20
53.980001
 30
0.0
  0
LWPOLYLINE
  5
102
100
AcDbEntity
  8
border
 62
7
100
AcDbPolyline
 90
14
 70
0
 10
2.592917
 20
52.983404
 30
0.0
 10
27.657778
 20
52.983404
 30
0.0
 10
27.657778
 20
1.001598
 30
0.0
 10
2.592917
 20
1.001598
 30
0.0
 10
1.966736
 20
1.125070
 30
0.0
 10
1.464028
 20
1.460209
 30
0.0
 10
1.120069
 20
1.962918
 30
0.0
 10
0.996597
 20
2.571459
 30
0.0
 10
0.996597
 20
51.404723
 30
0.0
 10
1.120069
 20
52.022084
 30
0.0
 10
1.464028
 20
52.524793
 30
0.0
 10
1.966736
 20
52.859932
 30
0.0
 10
2.592917
 20
52.983404
 30
0.0
 10
2.592917
 20
52.983404
 30
0.0
  0
LWPOLYLINE
  5
103
100
AcDbEntity
  8
border
 62
7
100
AcDbPolyline
 90
14
 70
0
 10
28.654375
 20
52.983404
 30
0.0
 10
83.008611
 20
52.983404
 30
0.0
 10
83.625972
 20
52.859932
 30
0.0
 10
84.137500
 20
52.524793
 30
0.0
 10
84.472639
 20
52.022084
 30
0.0
 10
84.596111
 20
51.404723
 30
0.0
 10
84.596111
 20
2.571459
 30
0.0
 10
84.472639
 20
1.962918
 30
0.0
 10
84.137500
 20
1.460209
 30
0.0
 10
83.625972
 20
1.125070
 30
0.0
 10
83.008611
 20
1.001598
 30
0.0
 10
28.654375
 20
1.001598
 30
0.0
 10
28.654375
 20
52.983404
 30
0.0
 10
28.654375
 20
52.983404
 30
0.0
  0
LWPOLYLINE
  5
104
100
AcDbEntity
  8
pcb
 62
7
100
AcDbPolyline
 90
5
 70
0
 10
1.840035
 20
51.992008
 30
0.0
 10
26.840036
 20
51.992008
 30
0.0
 10
26.840036
 20
1.992006
 30
0.0
 10
1.840035
 20
1.992006
 30
0.0
 10
1.840035
 20
51.992008
 30
0.0
  0
LWPOLYLINE
  5
105
100
AcDbEntity
  8
winding_support
 62
7
100
AcDbPolyline
 90
22
 70
0
 10
35.339514
 20
47.991105
 30
0.0
 10
34.816409
 20
47.886191
 30
0.0
 10
34.390443
 20
47.599621
 30
0.0
 10
34.103872
 20
47.173655
 30
0.0
 10
33.998958
 20
46.650549
 30
0.0
 10
33.998958
 20
7.333466
 30
0.0
 10
34.103872
 20
6.810361
 30
0.0
 10
34.390443
 20
6.384395
 30
0.0
 10
34.816409
 20
6.097823
 30
0.0
 10
35.339514
 20
5.992910
 30
0.0
 10
78.660625
 20
5.992910
 30
0.0
 10
79.183730
 20
6.097823
 30
0.0
 10
79.609699
 20
6.384395
 30
0.0
 10
79.896267
 20
6.810361
 30
0.0
 10
80.001181
 20
7.333466
 30
0.0
 10
80.001181
 20
46.650549
 30
0.0
 10
79.896267
 20
47.173655
 30
0.0
 10
79.609699
 20
47.599621
 30
0.0
 10
79.183730
 20
47.886191
 30
0.0
 10
78.660625
 20
47.991105
 30
0.0
 10
35.339514
 20
47.991105
 30
0.0
 10
35.339514
 20
47.991105
 30
0.0
  0
LWPOLYLINE
  5
106
100
AcDbEntity
  8
winding_support
 62
7
100
AcDbPolyline
 90
22
 70
0
 10
35.762847
 20
46.994507
 30
0.0
 10
78.237292
 20
46.994507
 30
0.0
 10
78.534813
 20
46.934288
 30
0.0
 10
78.775647
 20
46.769982
 30
0.0
 10
78.936923
 20
46.526116
 30
0.0
 10
78.995764
 20
46.227216
 30
0.0
 10
78.995764
 20
7.765618
 30
0.0
 10
78.936923
 20
7.466720
 30
0.0
 10
78.775647
 20
7.222851
 30
0.0
 10
78.534813
 20
7.058547
 30
0.0
 10
78.237292
 20
6.998327
 30
0.0
 10
35.762847
 20
6.998327
 30
0.0
 10
35.465326
 20
7.058547
 30
0.0
 10
35.224491
 20
7.222851
 30
0.0
 10
35.063216
 20
7.466720
 30
0.0
 10
35.004375
 20
7.765618
 30
0.0
 10
35.004375
 20
46.227216
 30
0.0
 10
35.063216
 20
46.526116
 30
0.0
 10
35.224491
 20
46.769982
 30
0.0
 10
35.465326
 20
46.934288
 30
0.0
 10
35.762847
 20
46.994507
 30
0.0
 10
35.762847
 20
46.994507
 30
0.0
  0
LWPOLYLINE
  5
107
100
AcDbEntity
  8
pcb_flanges
 62
7
100
AcDbPolyline
 90
15
 70
0
 10
19.148495
 20
53.155723
 30
0.0
 10
19.193756
 20
52.259379
 30
0.0
 10
19.326601
 20
51.388944
 30
0.0
 10
19.542623
 20
50.548825
 30
0.0
 10
19.837417
 20
49.743424
 30
0.0
 10
20.645693
 20
48.254395
 30
0.0
 10
21.716179
 20
46.957091
 30
0.0
 10
23.013624
 20
45.886745
 30
0.0
 10
24.502776
 20
45.078591
 30
0.0
 10
25.308227
 20
44.783845
 30
0.0
 10
26.148386
 20
44.567860
 30
0.0
 10
27.018847
 20
44.435039
 30
0.0
 10
27.915203
 20
44.389787
 30
0.0
 10
27.915203
 20
53.155723
 30
0.0
 10
19.148495
 20
53.155723
 30
0.0
  0
LWPOLYLINE
  5
108
100
AcDbEntity
  8
pcb_flanges
 62
7
100
AcDbPolyline
 90
15
 70
0
 10
19.148242
 20
0.828273
 30
0.0
 10
19.193502
 20
1.724617
 30
0.0
 10
19.326347
 20
2.595052
 30
0.0
 10
19.542369
 20
3.435171
 30
0.0
 10
19.837163
 20
4.240572
 30
0.0
 10
20.645438
 20
5.729601
 30
0.0
 10
21.715923
 20
7.026906
 30
0.0
 10
23.013367
 20
8.097251
 30
0.0
 10
24.502520
 20
8.905406
 30
0.0
 10
25.307972
 20
9.200150
 30
0.0
 10
26.148131
 20
9.416135
 30
0.0
 10
27.018593
 20
9.548957
 30
0.0
 10
27.914950
 20
9.594209
 30
0.0
 10
27.914950
 20
0.828273
 30
0.0
 10
19.148242
 20
0.828273
 30
0.0
  0
LWPOLYLINE
  5
109
100
AcDbEntity
  8
pcb_flanges
 62
7
100
AcDbPolyline
 90
15
 70
0
 10
9.390701
 20
53.155565
 30
0.0
 10
9.345441
 20
52.259211
 30
0.0
 10
9.212596
 20
51.388768
 30
0.0
 10
8.996573
 20
50.548641
 30
0.0
 10
8.701780
 20
49.743234
 30
0.0
 10
7.893503
 20
48.254196
 30
0.0
 10
6.823017
 20
46.956886
 30
0.0
 10
5.525572
 20
45.886536
 30
0.0
 10
4.036418
 20
45.078380
 30
0.0
 10
3.230967
 20
44.783634
 30
0.0
 10
2.390807
 20
44.567649
 30
0.0
 10
1.520345
 20
44.434828
 30
0.0
 10
0.623988
 20
44.389575
 30
0.0
 10
0.623988
 20
53.155565
 30
0.0
 10
9.390701
 20
53.155565
 30
0.0
  0
LWPOLYLINE
  5
10a
100
AcDbEntity
  8
pcb_flanges
 62
7
100
AcDbPolyline
 90
15
 70
0
 10
0.624379
 20
9.594897
 30
0.0
 10
1.520728
 20
9.549637
 30
0.0
 10
2.391166
 20
9.416795
 30
0.0
 10
3.231288
 20
9.200777
 30
0.0
 10
4.036692
 20
8.905987
 30
0.0
 10
5.525725
 20
8.097722
 30
0.0
 10
6.823033
 20
7.027251
 30
0.0
 10
7.893381
 20
5.729819
 30
0.0
 10
8.701538
 20
4.240682
 30
0.0
 10
8.996283
 20
3.435236
 30
0.0
 10
9.212269
 20
2.595083
 30
0.0
 10
9.345090
 20
1.724625
 30
0.0
 10
9.390342
 20
0.828273
 30
0.0
 10
0.624379
 20
0.828273
 30
0.0
 10
0.624379
 20
9.594897
 30
0.0
  0
LWPOLYLINE
  5
10b
100
AcDbEntity
  8
logo
 62
7
100
AcDbPolyline
 90
62
 70
0
 10
65.128747
 20
30.439149
 30
0.0
 10
65.828048
 20
30.368449
 30
0.0
 10
66.479790
 20
30.165732
 30
0.0
 10
67.069894
 20
29.845071
 30
0.0
 10
67.584278
 20
29.420541
 30
0.0
 10
68.008864
 20
28.906214
 30
0.0
 10
68.329570
 20
28.316165
 30
0.0
 10
68.532321
 20
27.664466
 30
0.0
 10
68.603032
 20
26.965193
 30
0.0
 10
68.532321
 20
26.265996
 30
0.0
 10
68.329570
 20
25.614325
 30
0.0
 10
68.008864
 20
25.024266
 30
0.0
 10
67.584278
 20
24.509902
 30
0.0
 10
67.069894
 20
24.085324
 30
0.0
 10
66.479790
 20
23.764613
 30
0.0
 10
65.828048
 20
23.561859
 30
0.0
 10
65.128747
 20
23.491142
 30
0.0
 10
64.572498
 20
23.535657
 30
0.0
 10
64.044195
 20
23.664554
 30
0.0
 10
63.099163
 20
24.147639
 30
0.0
 10
62.349126
 20
24.884679
 30
0.0
 10
61.849556
 20
25.819953
 30
0.0
 10
59.051966
 20
24.538483
 30
0.0
 10
59.051966
 20
17.501314
 30
0.0
 10
64.329632
 20
19.959357
 30
0.0
 10
61.654603
 20
21.108120
 30
0.0
 10
61.654603
 20
21.980802
 30
0.0
 10
62.431188
 20
21.520080
 30
0.0
 10
63.276395
 20
21.176897
 30
0.0
 10
64.179244
 20
20.962640
 30
0.0
 10
65.128747
 20
20.888692
 30
0.0
 10
66.353512
 20
21.012145
 30
0.0
 10
67.494243
 20
21.366215
 30
0.0
 10
68.526508
 20
21.926468
 30
0.0
 10
69.425874
 20
22.668467
 30
0.0
 10
70.167906
 20
23.567777
 30
0.0
 10
70.728180
 20
24.599968
 30
0.0
 10
71.082261
 20
25.740600
 30
0.0
 10
71.205717
 20
26.965239
 30
0.0
 10
71.082258
 20
28.189878
 30
0.0
 10
70.728174
 20
29.330505
 30
0.0
 10
70.167895
 20
30.362686
 30
0.0
 10
69.425854
 20
31.261989
 30
0.0
 10
68.526488
 20
32.003979
 30
0.0
 10
67.494223
 20
32.564224
 30
0.0
 10
66.353501
 20
32.918288
 30
0.0
 10
65.128747
 20
33.041740
 30
0.0
 10
64.179244
 20
32.967796
 30
0.0
 10
63.276395
 20
32.753539
 30
0.0
 10
62.431188
 20
32.410332
 30
0.0
 10
61.654603
 20
31.949536
 30
0.0
 10
61.654603
 20
32.874738
 30
0.0
 10
64.401881
 20
34.033225
 30
0.0
 10
59.051918
 20
36.346534
 30
0.0
 10
59.051918
 20
29.261261
 30
0.0
 10
61.833630
 20
28.063831
 30
0.0
 10
62.327550
 20
29.016599
 30
0.0
 10
63.079647
 20
29.768489
 30
0.0
 10
64.032511
 20
30.261881
 30
0.0
 10
64.566295
 20
30.393631
 30
0.0
 10
65.128747
 20
30.439149
 30
0.0
 10
65.128747
 20
30.439149
 30
0.0
  0
LWPOLYLINE
  5
10c
100
AcDbEntity
  8
logo
 62
7
100
AcDbPolyline
 90
22
 70
0
 10
49.987104
 20
41.940679
 30
0.0
 10
50.142349
 20
42.809485
 30
0.0
 10
50.529899
 20
43.396674
 30
0.0
 10
51.099613
 20
43.729212
 30
0.0
 10
51.801336
 20
43.834066
 30
0.0
 10
53.199120
 20
43.834066
 30
0.0
 10
53.896703
 20
43.729206
 30
0.0
 10
54.466911
 20
43.396656
 30
0.0
 10
54.856781
 20
42.809465
 30
0.0
 10
55.013352
 20
41.940679
 30
0.0
 10
55.013352
 20
41.425254
 30
0.0
 10
54.856781
 20
40.556433
 30
0.0
 10
54.466911
 20
39.969212
 30
0.0
 10
53.896703
 20
39.636642
 30
0.0
 10
53.199120
 20
39.531773
 30
0.0
 10
51.801336
 20
39.531773
 30
0.0
 10
51.099613
 20
39.636642
 30
0.0
 10
50.529899
 20
39.969212
 30
0.0
 10
50.142349
 20
40.556433
 30
0.0
 10
49.987104
 20
41.425254
 30
0.0
 10
49.987104
 20
41.940679
 30
0.0
 10
49.987104
 20
41.940679
 30
0.0
  0
LWPOLYLINE
  5
10d
100
AcDbEntity
  8
logo
 62
7
100
AcDbPolyline
 90
22
 70
0
 10
51.295774
 20
41.573887
 30
0.0
 10
51.345646
 20
41.273092
 30
0.0
 10
51.479182
 20
41.055942
 30
0.0
 10
51.694498
 20
40.924293
 30
0.0
 10
51.989711
 20
40.879998
 30
0.0
 10
53.010793
 20
40.879998
 30
0.0
 10
53.306060
 20
40.924300
 30
0.0
 10
53.521367
 20
41.055960
 30
0.0
 10
53.654884
 20
41.273112
 30
0.0
 10
53.704775
 20
41.573887
 30
0.0
 10
53.704775
 20
41.791952
 30
0.0
 10
53.654870
 20
42.092728
 30
0.0
 10
53.521356
 20
42.309879
 30
0.0
 10
53.306057
 20
42.441540
 30
0.0
 10
53.010793
 20
42.485841
 30
0.0
 10
51.989711
 20
42.485841
 30
0.0
 10
51.694498
 20
42.441546
 30
0.0
 10
51.479176
 20
42.309897
 30
0.0
 10
51.345640
 20
42.092748
 30
0.0
 10
51.295774
 20
41.791952
 30
0.0
 10
51.295774
 20
41.573887
 30
0.0
 10
51.295774
 20
41.573887
 30
0.0
  0
LWPOLYLINE
  5
10e
100
AcDbEntity
  8
logo
 62
7
100
AcDbPolyline
 90
22
 70
0
 10
50.096138
 20
37.527522
 30
0.0
 10
50.096138
 20
38.945084
 30
0.0
 10
56.778071
 20
38.945084
 30
0.0
 10
56.778071
 20
37.527522
 30
0.0
 10
54.884591
 20
37.527522
 30
0.0
 10
55.004603
 20
36.434307
 30
0.0
 10
54.978808
 20
35.947060
 30
0.0
 10
54.878311
 20
35.517664
 30
0.0
 10
54.689982
 20
35.159826
 30
0.0
 10
54.400690
 20
34.887256
 30
0.0
 10
53.997301
 20
34.713661
 30
0.0
 10
53.466692
 20
34.652750
 30
0.0
 10
50.096084
 20
34.652750
 30
0.0
 10
50.096084
 20
36.040576
 30
0.0
 10
53.139690
 20
36.040576
 30
0.0
 10
53.366139
 20
36.078850
 30
0.0
 10
53.523944
 20
36.185077
 30
0.0
 10
53.671241
 20
36.549824
 30
0.0
 10
53.656848
 20
37.031684
 30
0.0
 10
53.556004
 20
37.527522
 30
0.0
 10
50.096141
 20
37.527522
 30
0.0
 10
50.096141
 20
37.527522
 30
0.0
  0
LWPOLYLINE
  5
10f
100
AcDbEntity
  8
logo
 62
7
100
AcDbPolyline
 90
33
 70
0
 10
50.096138
 20
28.340194
 30
0.0
 10
53.189350
 20
28.340194
 30
0.0
 10
53.432459
 20
28.380752
 30
0.0
 10
53.597155
 20
28.491817
 30
0.0
 10
53.738241
 20
28.861820
 30
0.0
 10
53.706466
 20
29.322899
 30
0.0
 10
53.595696
 20
29.747750
 30
0.0
 10
50.096138
 20
29.747750
 30
0.0
 10
50.096138
 20
31.165264
 30
0.0
 10
53.189350
 20
31.165264
 30
0.0
 10
53.435442
 20
31.205829
 30
0.0
 10
53.608007
 20
31.316911
 30
0.0
 10
53.772963
 20
31.686967
 30
0.0
 10
53.765061
 20
32.148108
 30
0.0
 10
53.665165
 20
32.573008
 30
0.0
 10
50.096129
 20
32.573008
 30
0.0
 10
50.096129
 20
33.990570
 30
0.0
 10
54.666470
 20
33.990570
 30
0.0
 10
54.839904
 20
33.327134
 30
0.0
 10
54.998516
 20
32.341256
 30
0.0
 10
55.001056
 20
31.268045
 30
0.0
 10
54.899597
 20
30.772162
 30
0.0
 10
54.706119
 20
30.342612
 30
0.0
 10
54.997226
 20
29.266095
 30
0.0
 10
55.056267
 20
28.697275
 30
0.0
 10
55.034564
 20
28.154243
 30
0.0
 10
54.914792
 20
27.671619
 30
0.0
 10
54.679652
 20
27.284024
 30
0.0
 10
54.311835
 20
27.026078
 30
0.0
 10
53.794033
 20
26.932403
 30
0.0
 10
50.096189
 20
26.932403
 30
0.0
 10
50.096189
 20
28.340194
 30
0.0
 10
50.096189
 20
28.340194
 30
0.0
  0
LWPOLYLINE
  5
110
100
AcDbEntity
  8
logo
 62
7
100
AcDbPolyline
 90
19
 70
0
 10
50.225040
 20
26.158325
 30
0.0
 10
56.788030
 20
26.158325
 30
0.0
 10
56.788030
 20
25.325714
 30
0.0
 10
54.924190
 20
25.325714
 30
0.0
 10
55.031705
 20
24.299607
 30
0.0
 10
54.921743
 20
23.414810
 30
0.0
 10
54.742800
 20
23.063736
 30
0.0
 10
54.458602
 20
22.793986
 30
0.0
 10
54.052182
 20
22.620890
 30
0.0
 10
53.506582
 20
22.559786
 30
0.0
 10
51.494015
 20
22.559786
 30
0.0
 10
50.854737
 20
22.647337
 30
0.0
 10
50.411815
 20
22.892069
 30
0.0
 10
50.135736
 20
23.267140
 30
0.0
 10
49.996987
 20
23.745712
 30
0.0
 10
49.966056
 20
24.300956
 30
0.0
 10
50.013430
 20
24.906029
 30
0.0
 10
50.225040
 20
26.158325
 30
0.0
 10
50.225040
 20
26.158325
 30
0.0
  0
LWPOLYLINE
  5
111
100
AcDbEntity
  8
logo
 62
7
100
AcDbPolyline
 90
16
 70
0
 10
50.790074
 20
25.325762
 30
0.0
 10
50.677959
 20
24.672392
 30
0.0
 10
50.666190
 20
24.046914
 30
0.0
 10
50.738611
 20
23.784713
 30
0.0
 10
50.884918
 20
23.577578
 30
0.0
 10
51.121383
 20
23.441542
 30
0.0
 10
51.464275
 20
23.392633
 30
0.0
 10
53.536218
 20
23.392633
 30
0.0
 10
53.879107
 20
23.441542
 30
0.0
 10
54.115566
 20
23.577584
 30
0.0
 10
54.261870
 20
23.784727
 30
0.0
 10
54.334283
 20
24.046934
 30
0.0
 10
54.322514
 20
24.672412
 30
0.0
 10
54.210421
 20
25.325762
 30
0.0
 10
50.790066
 20
25.325762
 30
0.0
 10
50.790066
 20
25.325762
 30
0.0
  0
LWPOLYLINE
  5
112
100
AcDbEntity
  8
logo
 62
7
100
AcDbPolyline
 90
31
 70
0
 10
51.622920
 20
21.872942
 30
0.0
 10
52.168521
 20
21.811841
 30
0.0
 10
52.574935
 20
21.638760
 30
0.0
 10
52.859130
 20
21.369029
 30
0.0
 10
53.038067
 20
21.017978
 30
0.0
 10
53.148044
 20
20.133242
 30
0.0
 10
53.040576
 20
19.107204
 30
0.0
 10
53.496670
 20
19.107204
 30
0.0
 10
53.878768
 20
19.161272
 30
0.0
 10
54.129819
 20
19.338951
 30
0.0
 10
54.267492
 20
19.663461
 30
0.0
 10
54.309456
 20
20.158022
 30
0.0
 10
54.220282
 20
20.910203
 30
0.0
 10
54.041974
 20
21.595408
 30
0.0
 10
54.785424
 20
21.595408
 30
0.0
 10
54.956428
 20
20.870455
 30
0.0
 10
55.023357
 20
20.108509
 30
0.0
 10
54.923586
 20
19.240658
 30
0.0
 10
54.626770
 20
18.674856
 30
0.0
 10
54.136651
 20
18.367412
 30
0.0
 10
53.456975
 20
18.274640
 30
0.0
 10
50.224995
 20
18.274640
 30
0.0
 10
50.013393
 20
19.526854
 30
0.0
 10
49.966025
 20
20.131899
 30
0.0
 10
49.996965
 20
20.687123
 30
0.0
 10
50.135719
 20
21.165682
 30
0.0
 10
50.411806
 20
21.540738
 30
0.0
 10
50.854734
 20
21.785453
 30
0.0
 10
51.494015
 20
21.872990
 30
0.0
 10
51.622920
 20
21.872990
 30
0.0
 10
51.622920
 20
21.872942
 30
0.0
  0
LWPOLYLINE
  5
113
100
AcDbEntity
  8
logo
 62
7
100
AcDbPolyline
 90
16
 70
0
 10
51.652703
 20
21.040192
 30
0.0
 10
51.464233
 20
21.040192
 30
0.0
 10
51.121341
 20
20.991286
 30
0.0
 10
50.884876
 20
20.855254
 30
0.0
 10
50.738569
 20
20.648132
 30
0.0
 10
50.666150
 20
20.385944
 30
0.0
 10
50.677919
 20
19.760512
 30
0.0
 10
50.790032
 20
19.107204
 30
0.0
 10
52.326681
 20
19.107204
 30
0.0
 10
52.438904
 20
19.760512
 30
0.0
 10
52.450701
 20
20.385944
 30
0.0
 10
52.378285
 20
20.648132
 30
0.0
 10
52.231990
 20
20.855254
 30
0.0
 10
51.995553
 20
20.991286
 30
0.0
 10
51.652718
 20
21.040192
 30
0.0
 10
51.652718
 20
21.040192
 30
0.0
  0
LWPOLYLINE
  5
114
100
AcDbEntity
  8
logo
 62
7
100
AcDbPolyline
 90
46
 70
0
 10
53.645302
 20
16.914529
 30
0.0
 10
53.239932
 20
16.837386
 30
0.0
 10
53.041801
 20
16.617120
 30
0.0
 10
52.971929
 20
16.270478
 30
0.0
 10
52.951326
 20
15.814201
 30
0.0
 10
52.898280
 20
15.332245
 30
0.0
 10
52.783435
 20
14.962282
 30
0.0
 10
52.617474
 20
14.689907
 30
0.0
 10
52.411080
 20
14.500708
 30
0.0
 10
51.919717
 20
14.314221
 30
0.0
 10
51.394809
 20
14.287551
 30
0.0
 10
50.709932
 20
14.425735
 30
0.0
 10
50.301948
 20
14.768367
 30
0.0
 10
50.098381
 20
15.274564
 30
0.0
 10
50.026759
 20
15.903448
 30
0.0
 10
50.063981
 20
16.825296
 30
0.0
 10
50.205174
 20
17.598500
 30
0.0
 10
50.938808
 20
17.598500
 30
0.0
 10
50.785183
 20
16.908331
 30
0.0
 10
50.720696
 20
16.061947
 30
0.0
 10
50.752965
 20
15.649468
 30
0.0
 10
50.859546
 20
15.349466
 30
0.0
 10
51.077642
 20
15.162860
 30
0.0
 10
51.444463
 20
15.090566
 30
0.0
 10
51.711818
 20
15.095929
 30
0.0
 10
51.962454
 20
15.185870
 30
0.0
 10
52.149889
 20
15.448695
 30
0.0
 10
52.227652
 20
15.972725
 30
0.0
 10
52.272430
 20
16.642489
 30
0.0
 10
52.459382
 20
17.197028
 30
0.0
 10
52.637845
 20
17.411328
 30
0.0
 10
52.889853
 20
17.573112
 30
0.0
 10
53.228073
 20
17.674477
 30
0.0
 10
53.665179
 20
17.707520
 30
0.0
 10
54.224674
 20
17.625269
 30
0.0
 10
54.683807
 20
17.361832
 30
0.0
 10
54.997940
 20
16.869752
 30
0.0
 10
55.122437
 20
16.101582
 30
0.0
 10
54.993486
 20
14.594767
 30
0.0
 10
54.299598
 20
14.594767
 30
0.0
 10
54.428407
 20
16.032105
 30
0.0
 10
54.386912
 20
16.395847
 30
0.0
 10
54.252461
 20
16.674079
 30
0.0
 10
54.010210
 20
16.851924
 30
0.0
 10
53.645308
 20
16.914509
 30
0.0
 10
53.645308
 20
16.914509
 30
0.0
  0
LWPOLYLINE
  5
115
100
AcDbEntity
  8
logo
 62
7
100
AcDbPolyline
 90
27
 70
0
 10
51.087387
 20
10.229167
 30
0.0
 10
50.373675
 20
10.229167
 30
0.0
 10
50.085032
 20
11.196941
 30
0.0
 10
49.997112
 20
11.904771
 30
0.0
 10
50.152266
 20
12.773406
 30
0.0
 10
50.539794
 20
13.360496
 30
0.0
 10
51.109493
 20
13.692988
 30
0.0
 10
51.811154
 20
13.797831
 30
0.0
 10
53.209080
 20
13.797831
 30
0.0
 10
53.906623
 20
13.692988
 30
0.0
 10
54.476805
 20
13.360496
 30
0.0
 10
54.866692
 20
12.773406
 30
0.0
 10
55.023357
 20
11.904771
 30
0.0
 10
54.866692
 20
11.035815
 30
0.0
 10
54.476805
 20
10.448524
 30
0.0
 10
53.906623
 20
10.115928
 30
0.0
 10
53.209080
 20
10.011057
 30
0.0
 10
52.138346
 20
10.011057
 30
0.0
 10
52.138346
 20
12.965408
 30
0.0
 10
51.781464
 20
12.965408
 30
0.0
 10
51.329920
 20
12.898631
 30
0.0
 10
51.002003
 20
12.698950
 30
0.0
 10
50.798623
 20
12.367353
 30
0.0
 10
50.720690
 20
11.904819
 30
0.0
 10
50.814924
 20
11.185743
 30
0.0
 10
51.087387
 20
10.229167
 30
0.0
 10
51.087387
 20
10.229167
 30
0.0
  0
LWPOLYLINE
  5
116
100
AcDbEntity
  8
logo
 62
7
100
AcDbPolyline
 90
13
 70
0
 10
52.911767
 20
12.965360
 30
0.0
 10
52.911767
 20
10.843667
 30
0.0
 10
53.238863
 20
10.843667
 30
0.0
 10
53.686199
 20
10.910471
 30
0.0
 10
54.014573
 20
11.110242
 30
0.0
 10
54.220285
 20
11.441997
 30
0.0
 10
54.299637
 20
11.904771
 30
0.0
 10
54.220282
 20
12.367325
 30
0.0
 10
54.014570
 20
12.698922
 30
0.0
 10
53.686199
 20
12.898589
 30
0.0
 10
53.238863
 20
12.965360
 30
0.0
 10
52.911767
 20
12.965360
 30
0.0
 10
52.911767
 20
12.965360
 30
0.0
  0
ENDSEC
  0
SECTION
  2
OBJECTS
  0
DICTIONARY
  5
C
330
0
100
AcDbDictionary
  3
ACAD_GROUP
350
D
  3
ACAD_MLINESTYLE
350
17
  0
DICTIONARY
  5
D
330
C
100
AcDbDictionary
  0
DICTIONARY
  5
1A
330
C
100
AcDbDictionary
  0
DICTIONARY
  5
17
330
C
100
AcDbDictionary
  3
STANDARD
350
18
  0
DICTIONARY
  5
19
330
C
100
AcDbDictionary
  0
ENDSEC
  0
EOF
